<svg width="151" height="121" viewBox="0 0 151 121" fill="none" xmlns="http://www.w3.org/2000/svg">
<path d="M2.93652 26.5386C28.7805 7.64626 23.5963 10.711 54.2462 5.03619C61.2464 3.74011 71.1531 1.11175 76.8376 3.90942C85.2262 8.03796 88.8266 36.9789 72.5953 37.5872C62.1054 37.9803 55.8678 29.7573 63.2851 20.7336C75.449 5.93547 97.34 5.98656 110.351 10.4915C124.674 15.4512 130.162 28.5681 123.801 43.9092C120.895 50.9176 110.499 56.5904 109.647 47.0123C107.895 27.3116 134.468 32.7433 140.871 41.8746C152.404 58.3216 146.834 95.5798 120.863 109.956C112.742 114.451 112.991 110.608 114.451 106.801C115.933 102.937 117.867 91.4544 117.987 95.1685C118.198 101.662 115.157 106.635 112.287 112.71C108.584 120.546 129.051 116.096 135.405 115.226C138.741 114.769 144.519 115.025 147.033 116.491C151.996 119.385 133.736 115.82 128.506 113.246" stroke="black" stroke-width="5" stroke-linecap="round" stroke-linejoin="round"/>
</svg>
