<svg width="104" height="47" viewBox="0 0 104 47" fill="none" xmlns="http://www.w3.org/2000/svg">
<path d="M100.123 32.7981C101.133 25.2902 103.651 16.0904 94.9221 12.628C90.7745 10.9827 84.2531 14.1396 82.0269 17.5747C80.1802 20.4241 76.8711 23.2965 78.4182 27.0762C79.6335 30.045 82.5593 31.9275 85.8282 31.1616C95.1114 28.9864 89.0368 18.1078 83.8491 15.6388C76.7683 12.2687 58.1778 22.3284 59.9422 31.1843C61.455 38.7773 69.241 34.642 68.84 28.4567C68.276 19.7556 64.2352 16.4879 54.7264 18.274C47.3019 19.6686 42.6937 28.4482 42.9372 35.0508C42.9878 36.4221 41.0972 44.3513 42.1682 44.2119C52.7365 42.8361 48.3635 25.9774 41.3866 22.7235C33.3704 18.9848 25.2167 15.2934 16.5297 17.3785C11.8582 18.4997 -0.57503 25.694 3.09322 22.5918C7.68381 18.7096 13.5311 13.0456 15.0636 6.91827C15.5196 5.09502 17.1166 -0.691997 15.3463 4.76127C13.5231 10.3775 12.048 15.3669 9.34943 20.2832C8.7489 21.3773 6.41334 21.826 5.34759 22.3401C4.4449 22.7754 8.02607 24.0165 8.39938 24.2383C11.6226 26.1527 13.5004 29.3389 14.9989 32.6779C16.3364 35.6582 17.1713 40.0051 19.5313 40.4351" stroke="black" stroke-width="4" stroke-linecap="round" stroke-linejoin="round"/>
</svg>
