<svg width="105" height="33" viewBox="0 0 105 33" fill="none" xmlns="http://www.w3.org/2000/svg">
<path d="M13.1277 4.684C13.8731 3.738 14.6184 2.86366 15.3637 2.061C16.1377 1.22967 16.7684 0.713665 17.2557 0.512998C17.7431 0.312332 18.7321 0.211999 20.2227 0.211999C21.7134 0.211999 22.4587 0.398333 22.4587 0.771C22.4587 0.914333 22.3011 1.072 21.9857 1.244C21.6704 1.416 21.2404 1.68833 20.6957 2.061C20.1511 2.43367 19.0044 3.45133 17.2557 5.114C15.5357 6.77666 13.8014 8.726 12.0527 10.962C11.9954 11.0193 11.9667 11.1053 11.9667 11.22C11.9667 11.306 12.0384 11.3633 12.1817 11.392C12.3537 11.4207 12.5831 11.4637 12.8697 11.521C13.1564 11.5783 13.6724 11.8077 14.4177 12.209C15.1917 12.5817 15.8797 13.069 16.4817 13.671C17.0837 14.2443 17.6571 15.1473 18.2017 16.38C18.7751 17.584 19.1047 18.7307 19.1907 19.82C19.2767 20.8807 19.3627 21.841 19.4487 22.701C19.5347 23.561 19.7497 24.7937 20.0937 26.399C20.4664 28.0043 20.8964 28.9647 21.3837 29.28C21.5271 29.3947 21.5987 29.538 21.5987 29.71C21.5987 30.1687 20.9681 30.5987 19.7067 31C18.4454 31.3727 17.3131 31.559 16.3097 31.559C15.3351 31.559 14.7761 31.1577 14.6327 30.355C14.4894 29.495 14.3891 27.4453 14.3317 24.206V22.486C14.3317 19.476 13.9017 17.2973 13.0417 15.95C12.2964 14.7747 11.6227 14.1153 11.0207 13.972C10.5621 13.8287 10.3184 13.757 10.2897 13.757L9.81673 13.972C9.12873 14.7747 8.58406 15.5487 8.18273 16.294C7.78139 17.0393 7.56639 17.584 7.53773 17.928L7.45173 18.487C7.45173 22.529 7.62373 25.9833 7.96773 28.85C8.02506 29.194 8.05373 29.3947 8.05373 29.452C8.05373 30.0827 7.38006 30.6273 6.03273 31.086C4.71406 31.5447 3.62473 31.774 2.76473 31.774C1.93339 31.774 1.51773 31.645 1.51773 31.387C1.51773 31.215 1.56073 31 1.64673 30.742C1.93339 30.1113 2.13406 28.033 2.24873 24.507C2.39206 20.9523 2.46373 17.7273 2.46373 14.832C2.46373 11.908 2.40639 9.543 2.29173 7.737C2.11973 5.01367 1.83306 3.37967 1.43173 2.835C1.11639 2.43367 0.958727 2.17567 0.958727 2.061C0.958727 1.65967 1.68973 1.27266 3.15173 0.899998C4.64239 0.527331 5.83206 0.340997 6.72073 0.340997C7.63806 0.340997 8.09673 0.541664 8.09673 0.942997L8.05373 1.502C7.68106 4.598 7.49473 7.909 7.49473 11.435C7.49473 11.7217 7.55206 11.865 7.66673 11.865C7.81006 11.865 7.96773 11.736 8.13973 11.478C8.31173 11.22 8.55539 10.8617 8.87073 10.403C9.21473 9.94433 9.81673 9.113 10.6767 7.909C11.5654 6.705 12.3824 5.63 13.1277 4.684ZM36.9118 18.1L36.8258 23.604C36.8258 27.4167 37.2414 29.71 38.0728 30.484C38.1874 30.5987 38.2448 30.7277 38.2448 30.871C38.2448 31.301 37.3131 31.516 35.4498 31.516C33.6151 31.516 32.6404 30.9713 32.5258 29.882C32.4971 29.624 32.4828 29.0937 32.4828 28.291L32.6548 21.411C32.6548 21.2103 32.5401 21.11 32.3108 21.11C30.9348 21.11 29.6448 21.497 28.4408 22.271C27.2368 23.045 26.6348 24.034 26.6348 25.238C26.6348 25.8687 26.8068 26.399 27.1508 26.829C27.4948 27.259 27.9104 27.474 28.3978 27.474C28.9138 27.474 29.3294 27.3737 29.6448 27.173C29.9888 26.9723 30.1894 26.8577 30.2468 26.829C30.7341 26.8863 30.9778 27.4023 30.9778 28.377C30.9778 29.323 30.5334 30.097 29.6448 30.699C28.7561 31.2723 27.8244 31.559 26.8498 31.559C25.8751 31.559 25.0294 31.387 24.3128 31.043C23.6248 30.699 23.1231 30.312 22.8078 29.882C22.4924 29.452 22.2344 28.9647 22.0338 28.42C21.8331 27.7607 21.7328 27.1873 21.7328 26.7C21.7328 24.6933 22.3634 23.088 23.6248 21.884C24.8861 20.68 26.5058 19.82 28.4838 19.304C31.0924 18.788 32.4541 18.315 32.5688 17.885C32.6548 17.5697 32.6978 17.0393 32.6978 16.294C32.6978 14.7747 31.9238 14.015 30.3758 14.015C29.7164 14.015 29.1288 14.23 28.6128 14.66C28.0968 15.0613 27.8388 15.5773 27.8388 16.208L28.0968 17.24C28.0394 17.7273 27.5234 18.014 26.5488 18.1L26.0758 18.143C25.2158 18.143 24.5278 17.928 24.0118 17.498C23.5244 17.068 23.2808 16.4947 23.2808 15.778C23.2808 15.3193 23.4241 14.8177 23.7108 14.273C24.0261 13.6997 24.4131 13.241 24.8718 12.897C25.3304 12.553 26.0328 12.252 26.9788 11.994C27.9534 11.7073 28.8851 11.564 29.7738 11.564C30.6624 11.564 31.3504 11.5927 31.8378 11.65C32.3251 11.7073 32.9844 11.8507 33.8158 12.08C34.6758 12.2807 35.3781 12.682 35.9228 13.284C36.4961 13.886 36.7971 14.531 36.8258 15.219C36.8831 15.8783 36.9118 16.8387 36.9118 18.1ZM39.5146 31.301C40.0306 28.205 40.2886 24.4927 40.2886 20.164C40.2886 15.8353 40.1596 13.026 39.9016 11.736C39.9016 11.3633 40.3316 11.177 41.1916 11.177C42.5103 11.177 43.3846 11.6787 43.8146 12.682C43.8433 12.768 43.9149 12.811 44.0296 12.811C44.1443 12.811 44.2303 12.7823 44.2876 12.725C45.1763 11.8077 46.5523 11.349 48.4156 11.349C50.2789 11.349 51.7553 11.822 52.8446 12.768C53.9339 13.714 54.4786 15.09 54.4786 16.896C54.4786 17.9853 54.3783 19.5333 54.1776 21.54C54.0056 23.5467 53.9196 25.0373 53.9196 26.012C53.9196 28.334 54.3066 30.011 55.0806 31.043C55.1953 31.1863 55.2526 31.3297 55.2526 31.473C55.2526 31.8457 54.8513 32.032 54.0486 32.032C50.4939 32.032 48.7166 30.4553 48.7166 27.302C48.7166 26.098 48.9889 24.421 49.5336 22.271C50.0783 20.121 50.3506 18.487 50.3506 17.369C50.3506 15.0757 49.4046 13.929 47.5126 13.929C46.5953 13.929 45.8929 14.2013 45.4056 14.746C44.9469 15.2907 44.6889 15.9213 44.6316 16.638C44.5743 17.326 44.5456 18.6447 44.5456 20.594C44.5456 23.5753 44.6459 26.1697 44.8466 28.377L44.9326 29.323C44.9326 30.1257 44.4023 30.742 43.3416 31.172C42.3096 31.6307 41.4066 31.86 40.6326 31.86C39.8873 31.86 39.5146 31.6737 39.5146 31.301ZM65.2894 11.693C65.8054 11.693 66.2641 11.7647 66.6654 11.908C67.0954 12.0227 67.3247 12.08 67.3534 12.08L67.6114 11.865L67.4394 7.178C67.3821 6.37533 67.2101 5.68733 66.9234 5.114C66.6367 4.54066 66.3787 4.168 66.1494 3.996L65.7624 3.781C65.5904 3.66633 65.5044 3.53733 65.5044 3.394C65.5044 2.964 66.1637 2.46233 67.4824 1.889C68.8297 1.31567 69.8761 1.029 70.6214 1.029C71.3667 1.029 71.7681 1.18667 71.8254 1.502C71.9687 2.47667 72.0404 4.34 72.0404 7.092C72.0404 9.81533 71.9687 12.4957 71.8254 15.133C71.7107 17.7703 71.6534 20.766 71.6534 24.12C71.6534 27.4453 71.8684 29.538 72.2984 30.398C72.4131 30.5987 72.4704 30.785 72.4704 30.957C72.4704 31.387 71.8541 31.602 70.6214 31.602C68.2707 31.602 67.0954 31.043 67.0954 29.925C67.0381 29.4663 67.0094 28.764 67.0094 27.818C67.0094 26.8433 67.0954 25.0517 67.2674 22.443C67.4681 19.8057 67.5684 17.7847 67.5684 16.38C67.5684 14.9467 66.8517 14.23 65.4184 14.23C64.0137 14.23 62.9387 15.0613 62.1934 16.724C61.4481 18.3867 61.0754 20.0493 61.0754 21.712C61.0754 25.238 61.9641 27.001 63.7414 27.001C63.9994 27.001 64.2431 26.958 64.4724 26.872C64.7304 26.7573 64.8881 26.7 64.9454 26.7C65.1747 26.7 65.3467 26.8433 65.4614 27.13C65.6047 27.4167 65.6764 27.7033 65.6764 27.99C65.6764 28.9647 65.2894 29.796 64.5154 30.484C63.7414 31.1433 62.7954 31.473 61.6774 31.473C59.9574 31.473 58.6531 30.7277 57.7644 29.237C56.9044 27.7177 56.4744 25.84 56.4744 23.604C56.4744 20.766 57.1481 18.1287 58.4954 15.692C59.1834 14.488 60.1151 13.5277 61.2904 12.811C62.4657 12.0657 63.7987 11.693 65.2894 11.693ZM78.4951 20.078L78.5381 21.153C78.5381 21.325 78.6528 21.411 78.8821 21.411C79.7995 21.325 80.6021 21.0957 81.2901 20.723C81.9781 20.3217 82.4941 19.8773 82.8381 19.39C83.5261 18.3293 83.8988 17.412 83.9561 16.638L83.9991 16.122C83.9991 14.574 83.3828 13.8 82.1501 13.8C81.2328 13.8 80.4875 14.2013 79.9141 15.004C78.9681 16.2653 78.4951 17.9567 78.4951 20.078ZM87.8691 25.797C87.8691 26.8863 87.6398 27.8467 87.1811 28.678C86.7511 29.4807 86.2495 30.0827 85.6761 30.484C85.1315 30.8567 84.4865 31.1577 83.7411 31.387C82.7951 31.6737 81.8921 31.817 81.0321 31.817C78.6241 31.817 76.8468 30.914 75.7001 29.108C74.5535 27.302 73.9801 25.0087 73.9801 22.228C73.9801 19.4187 74.6825 16.9247 76.0871 14.746C77.5205 12.5673 79.6561 11.478 82.4941 11.478C85.0741 11.478 86.8228 12.381 87.7401 14.187C88.1128 14.875 88.2991 15.5343 88.2991 16.165C88.2991 16.767 88.2705 17.2543 88.2131 17.627C88.1558 17.971 87.9551 18.5013 87.6111 19.218C87.2671 19.9347 86.8085 20.5797 86.2351 21.153C85.6618 21.7263 84.7588 22.271 83.5261 22.787C82.2935 23.303 80.8458 23.647 79.1831 23.819C78.9538 23.819 78.8391 23.9193 78.8391 24.12C78.8391 24.378 78.9251 24.765 79.0971 25.281C79.2978 25.7683 79.5128 26.184 79.7421 26.528C80.3728 27.3307 81.3045 27.732 82.5371 27.732C83.7698 27.732 84.8161 27.3307 85.6761 26.528C86.1348 26.098 86.5075 25.5677 86.7941 24.937C86.9088 24.7077 87.0521 24.593 87.2241 24.593C87.4248 24.593 87.5825 24.7507 87.6971 25.066C87.8118 25.3813 87.8691 25.625 87.8691 25.797ZM95.6263 6.404L95.3683 22.185C95.3683 27.1157 95.5259 30.0683 95.8413 31.043C95.9273 31.215 95.9703 31.387 95.9703 31.559C95.9703 31.903 95.5546 32.075 94.7233 32.075C93.8919 32.075 92.9603 31.86 91.9283 31.43C90.9249 31.0287 90.4233 30.4983 90.4233 29.839C90.9966 25.8257 91.2833 20.465 91.2833 13.757L91.1113 7.178C91.0539 6.37533 90.8819 5.68733 90.5953 5.114C90.3373 4.54066 90.0793 4.168 89.8213 3.996L89.4773 3.781C89.2766 3.66633 89.1763 3.53733 89.1763 3.394C89.1763 2.99267 89.7926 2.50533 91.0253 1.932C92.2866 1.33 93.5049 1.029 94.6803 1.029C95.1389 1.029 95.3969 1.18667 95.4543 1.502C95.5689 2.24733 95.6263 3.88133 95.6263 6.404ZM104.361 6.404L104.103 22.185C104.103 27.1157 104.26 30.0683 104.576 31.043C104.662 31.215 104.705 31.387 104.705 31.559C104.705 31.903 104.289 32.075 103.458 32.075C102.626 32.075 101.695 31.86 100.663 31.43C99.6593 31.0287 99.1576 30.4983 99.1576 29.839C99.731 25.8257 100.018 20.465 100.018 13.757L99.8456 7.178C99.7883 6.37533 99.6163 5.68733 99.3296 5.114C99.0716 4.54066 98.8136 4.168 98.5556 3.996L98.2116 3.781C98.011 3.66633 97.9106 3.53733 97.9106 3.394C97.9106 2.99267 98.527 2.50533 99.7596 1.932C101.021 1.33 102.239 1.029 103.415 1.029C103.873 1.029 104.131 1.18667 104.189 1.502C104.303 2.24733 104.361 3.88133 104.361 6.404Z" fill="#1E1E1E"/>
</svg>
